<svg id="apps-add" xmlns="http://www.w3.org/2000/svg" width="57.551" height="57.551" viewBox="0 0 57.551 57.551">
  <path id="Path_10415" data-name="Path 10415" d="M16.786,0H9.592A9.592,9.592,0,0,0,0,9.592v7.194a9.592,9.592,0,0,0,9.592,9.592h7.194a9.592,9.592,0,0,0,9.592-9.592V9.592A9.592,9.592,0,0,0,16.786,0Zm4.8,16.786a4.8,4.8,0,0,1-4.8,4.8H9.592a4.8,4.8,0,0,1-4.8-4.8V9.592a4.8,4.8,0,0,1,4.8-4.8h7.194a4.8,4.8,0,0,1,4.8,4.8Z" fill="#e77626"/>
  <path id="Path_10416" data-name="Path 10416" d="M16.786,13H9.592A9.592,9.592,0,0,0,0,22.592v7.194a9.592,9.592,0,0,0,9.592,9.592h7.194a9.592,9.592,0,0,0,9.592-9.592V22.592A9.592,9.592,0,0,0,16.786,13Zm4.8,16.786a4.8,4.8,0,0,1-4.8,4.8H9.592a4.8,4.8,0,0,1-4.8-4.8V22.592a4.8,4.8,0,0,1,4.8-4.8h7.194a4.8,4.8,0,0,1,4.8,4.8Z" transform="translate(0 18.173)" fill="#e77626"/>
  <path id="Path_10417" data-name="Path 10417" d="M29.786,13H22.592A9.592,9.592,0,0,0,13,22.592v7.194a9.592,9.592,0,0,0,9.592,9.592h7.194a9.592,9.592,0,0,0,9.592-9.592V22.592A9.592,9.592,0,0,0,29.786,13Zm4.8,16.786a4.8,4.8,0,0,1-4.8,4.8H22.592a4.8,4.8,0,0,1-4.8-4.8V22.592a4.8,4.8,0,0,1,4.8-4.8h7.194a4.8,4.8,0,0,1,4.8,4.8Z" transform="translate(18.173 18.173)" fill="#e77626"/>
  <path id="Path_10418" data-name="Path 10418" d="M15.4,15.388h7.194v7.194a2.4,2.4,0,0,0,4.8,0V15.388h7.194a2.4,2.4,0,0,0,0-4.8H27.388V3.4a2.4,2.4,0,0,0-4.8,0v7.194H15.4a2.4,2.4,0,0,0,0,4.8Z" transform="translate(18.173 1.398)" fill="#e77626"/>
</svg>
