<svg xmlns="http://www.w3.org/2000/svg" width="73.62" height="73.623" viewBox="0 0 73.62 73.623">
  <path id="code-merge" d="M61.353,24.541a12.29,12.29,0,0,0-11.881,9.2H18.406a3.071,3.071,0,0,1-3.068-3.068V24.151a12.271,12.271,0,1,0-6.135,0V49.469a12.271,12.271,0,1,0,6.135,0V39.352a9.139,9.139,0,0,0,3.068.525H49.472A12.271,12.271,0,1,0,61.353,24.538ZM6.135,12.271a6.135,6.135,0,1,1,6.135,6.135A6.141,6.141,0,0,1,6.135,12.271ZM18.406,61.353a6.135,6.135,0,1,1-6.135-6.135A6.141,6.141,0,0,1,18.406,61.353ZM61.353,42.947a6.135,6.135,0,1,1,6.135-6.135A6.141,6.141,0,0,1,61.353,42.947Z" transform="translate(0 73.623) rotate(-90)" fill="#e77626"/>
</svg>
