<svg xmlns="http://www.w3.org/2000/svg" width="73.62" height="73.62" viewBox="0 0 73.62 73.62">
  <path id="data-transfer_1_" data-name="data-transfer (1)" d="M24.54,0H12.27A12.27,12.27,0,0,0,0,12.27v3.068a12.27,12.27,0,0,0,12.27,12.27h3.068v6.135H9.2a3.068,3.068,0,1,0,0,6.135H27.608a3.068,3.068,0,1,0,0-6.135H21.473V27.608H24.54a12.27,12.27,0,0,0,12.27-12.27V12.27A12.27,12.27,0,0,0,24.54,0Zm6.135,15.338a6.135,6.135,0,0,1-6.135,6.135H12.27a6.135,6.135,0,0,1-6.135-6.135V12.27A6.135,6.135,0,0,1,12.27,6.135H24.54a6.135,6.135,0,0,1,6.135,6.135ZM61.35,33.743H55.215a12.27,12.27,0,0,0-12.27,12.27V61.35a12.27,12.27,0,0,0,12.27,12.27H61.35A12.27,12.27,0,0,0,73.62,61.35V46.013A12.27,12.27,0,0,0,61.35,33.743ZM67.485,61.35a6.135,6.135,0,0,1-6.135,6.135H55.215A6.135,6.135,0,0,1,49.08,61.35V46.013a6.135,6.135,0,0,1,6.135-6.135H61.35a6.135,6.135,0,0,1,6.135,6.135ZM42.945,12.27A3.068,3.068,0,0,1,46.013,9.2h6.135a9.2,9.2,0,0,1,9.2,9.2V24.54a3.068,3.068,0,1,1-6.135,0V18.405a3.068,3.068,0,0,0-3.068-3.068H46.013A3.068,3.068,0,0,1,42.945,12.27ZM36.81,61.35a3.068,3.068,0,0,1-3.068,3.068h-9.2a9.2,9.2,0,0,1-9.2-9.2V49.08a3.068,3.068,0,0,1,6.135,0v6.135a3.068,3.068,0,0,0,3.068,3.068h9.2A3.068,3.068,0,0,1,36.81,61.35Zm24.54,0a3.068,3.068,0,1,1-3.068-3.068A3.068,3.068,0,0,1,61.35,61.35Z" fill="#e77626"/>
</svg>
