<svg xmlns="http://www.w3.org/2000/svg" width="79.649" height="78.51" viewBox="0 0 79.649 78.51">
  <path id="chart-connected" d="M79.6,39.351A13.25,13.25,0,0,0,66.5,26.1,29.977,29.977,0,0,0,53.1,12.736a13.249,13.249,0,0,0-26.466,0A29.977,29.977,0,0,0,13.213,26.115a13.232,13.232,0,1,0-.053,26.464A29.957,29.957,0,0,0,26.622,66.072a13.249,13.249,0,0,0,26.466,0A29.957,29.957,0,0,0,66.549,52.577,13.249,13.249,0,0,0,79.6,39.351ZM39.855,6.28a6.625,6.625,0,1,1-6.625,6.625A6.625,6.625,0,0,1,39.855,6.28ZM6.731,39.351a6.625,6.625,0,1,1,6.625,6.625A6.625,6.625,0,0,1,6.731,39.351ZM39.855,72.527A6.625,6.625,0,1,1,46.479,65.9,6.625,6.625,0,0,1,39.855,72.527ZM51.375,59.48a13.133,13.133,0,0,0-23.041,0,23.392,23.392,0,0,1-8.579-8.612,13.137,13.137,0,0,0,.05-23.044,23.359,23.359,0,0,1,8.529-8.513,13.133,13.133,0,0,0,23.041,0A23.359,23.359,0,0,1,59.9,27.824a13.137,13.137,0,0,0,.05,23.044A23.392,23.392,0,0,1,51.375,59.48ZM66.353,45.972a6.625,6.625,0,1,1,6.625-6.625A6.625,6.625,0,0,1,66.353,45.972Z" transform="translate(0.046 -0.149)" fill="#e77626"/>
</svg>
