<svg xmlns="http://www.w3.org/2000/svg" width="64" height="64.012" viewBox="0 0 64 64.012">
  <path id="house-chimney" d="M58.667,15.271V5.341a2.667,2.667,0,1,0-5.333,0V11.65L39.459,2.287a13.282,13.282,0,0,0-14.917,0L5.875,14.885A13.319,13.319,0,0,0,0,25.938V50.674A13.348,13.348,0,0,0,13.333,64.007h8A2.666,2.666,0,0,0,24,61.341V40.007a2.669,2.669,0,0,1,2.667-2.667H37.333A2.669,2.669,0,0,1,40,40.007V61.341a2.666,2.666,0,0,0,2.667,2.667h8A13.348,13.348,0,0,0,64,50.674V25.938A13.32,13.32,0,0,0,58.667,15.271Zm0,35.4a8.01,8.01,0,0,1-8,8H45.333V40.007a8.01,8.01,0,0,0-8-8H26.667a8.01,8.01,0,0,0-8,8V58.674H13.333a8.01,8.01,0,0,1-8-8V25.938a7.986,7.986,0,0,1,3.525-6.632l18.667-12.6a7.959,7.959,0,0,1,8.947,0l18.667,12.6a7.986,7.986,0,0,1,3.525,6.632V50.674Z" transform="translate(0 0.004)" fill="#e77626"/>
</svg>
