<svg xmlns="http://www.w3.org/2000/svg" width="59.36" height="64.756" viewBox="0 0 59.36 64.756">
  <path id="sack-dollar" d="M37.536,14.764c3.227-2.752,6.635-6.875,6.635-12.066V0H17.189V2.7c0,5.191,3.408,9.311,6.635,12.066C11.129,19.289,1,35.411,1,48.567A16.2,16.2,0,0,0,17.189,64.756H44.171A16.2,16.2,0,0,0,60.36,48.567C60.36,35.411,50.231,19.289,37.536,14.764ZM23.144,5.4H38.208c-1.406,3.389-5.1,6.233-7.509,7.7-2.029-1.241-6.074-4.08-7.552-7.7ZM44.171,59.36H17.189A10.8,10.8,0,0,1,6.4,48.567c0-13.925,12.385-29.634,24.278-29.634S54.964,34.645,54.964,48.567A10.8,10.8,0,0,1,44.171,59.36ZM25.284,35.076a2.073,2.073,0,0,0,1.738,2.051l8.208,1.368a7.452,7.452,0,0,1,6.246,7.374,8.1,8.1,0,0,1-8.095,8.095v2.7h-5.4v-2.7a8.1,8.1,0,0,1-8.095-8.095h5.4a2.7,2.7,0,0,0,2.7,2.7h5.4a2.7,2.7,0,0,0,2.7-2.7,2.073,2.073,0,0,0-1.738-2.051l-8.208-1.368a7.452,7.452,0,0,1-6.246-7.374,8.1,8.1,0,0,1,8.095-8.095v-2.7h5.4v2.7a8.1,8.1,0,0,1,8.095,8.095h-5.4a2.7,2.7,0,0,0-2.7-2.7h-5.4A2.7,2.7,0,0,0,25.284,35.076Z" transform="translate(-1)" fill="#e77626"/>
</svg>
