<svg xmlns="http://www.w3.org/2000/svg" width="71.26" height="71.258" viewBox="0 0 71.26 71.258">
  <path id="bullseye-pointer" d="M28.611,35.1,1.951,44.757A2.964,2.964,0,0,0,.865,49.645l8.288,8.288L.9,66.185a2.967,2.967,0,1,0,4.2,4.2l8.25-8.25,8.288,8.288a2.969,2.969,0,0,0,4.89-1.089l9.656-26.66.018-.05a5.936,5.936,0,0,0-7.585-7.52Zm-6.077,27.82L8.358,48.749l22.229-8.066L22.533,62.924Zm48.72-33.218A29.708,29.708,0,0,1,41.578,59.381a2.967,2.967,0,0,1,0-5.935,23.74,23.74,0,1,0-23.74-23.74,2.967,2.967,0,1,1-5.935,0,29.675,29.675,0,0,1,59.349,0Zm-17.8,0A11.872,11.872,0,0,0,30.611,25.16a2.969,2.969,0,0,1-5.484-2.276A17.808,17.808,0,1,1,48.389,46.161a2.967,2.967,0,1,1-2.273-5.481,11.842,11.842,0,0,0,7.333-10.971Z" transform="translate(0.007 -0.032)" fill="#e77626"/>
</svg>
