<svg xmlns="http://www.w3.org/2000/svg" width="79.323" height="58.035" viewBox="0 0 79.323 58.035">
  <path id="signal-stream" d="M39.656,25.62a6.613,6.613,0,1,1-6.613,6.613A6.632,6.632,0,0,1,39.656,25.62ZM67.727,60.3a39.712,39.712,0,0,0,0-56.109,3.3,3.3,0,1,0-4.662,4.662,33.086,33.086,0,0,1,0,46.752,3.293,3.293,0,0,0,0,4.662,3.247,3.247,0,0,0,2.347.959,3.387,3.387,0,0,0,2.348-.959Zm-11.7-11.7a23.148,23.148,0,0,0,0-32.733,3.3,3.3,0,0,0-4.662,4.662,16.6,16.6,0,0,1,0,23.409,3.293,3.293,0,0,0,0,4.662,3.247,3.247,0,0,0,2.348.959,3.387,3.387,0,0,0,2.347-.959ZM16.28,60.3a3.293,3.293,0,0,0,0-4.662,33.086,33.086,0,0,1,0-46.752,3.3,3.3,0,0,0-4.662-4.662A39.7,39.7,0,0,0,11.585,60.3a3.247,3.247,0,0,0,2.348.959A3.387,3.387,0,0,0,16.28,60.3Zm11.7-11.7a3.293,3.293,0,0,0,0-4.662,16.543,16.543,0,0,1,0-23.376A3.3,3.3,0,0,0,23.323,15.9a23.168,23.168,0,0,0,0,32.733,3.247,3.247,0,0,0,2.348.959,3.387,3.387,0,0,0,2.348-.959Z" transform="translate(-0.009 -3.228)" fill="#e77626"/>
</svg>
